<?xml version="1.0" encoding="utf-8"?>
<!-- Generator: Adobe Illustrator 23.0.3, SVG Export Plug-In . SVG Version: 6.00 Build 0)  -->
<svg version="1.1" id="Layer_1" xmlns="http://www.w3.org/2000/svg" xmlns:xlink="http://www.w3.org/1999/xlink" x="0px" y="0px"
	 viewBox="0 0 733 626" style="enable-background:new 0 0 733 626;" xml:space="preserve">
<style type="text/css">
	.st0{fill:#A98168;}
	.st1{fill:none;}
	.st2{font-family:'ArialMT';}
	.st3{font-size:12px;}
</style>
<g id="Capa_1">
</g>
<path class="st0" d="M399.1,415.6l0.4-0.1l-5.4-2.1c-74.9-29.6-153.6-45-234.1-45.7l82-44.3h79.5c5.5,0,10-4.5,10-10s-4.5-10-10-10
	h-72v-27.1h234v27.1h-72c-5.5,0-10,4.5-10,10s4.5,10,10,10H491l107.6,58.1c-3.3,5-6.9,9.8-10.8,14.2c5.6,2.7,12,5.7,18.8,8.8
	c5.5-6.8,10.5-14.2,14.8-22c1.3-2.3,1.6-5.1,0.8-7.7l0,0c-0.8-2.6-2.5-4.7-4.8-6l-66.6-35.9c3.2-0.3,6.4-0.8,9.5-1.4
	c24.4-4.9,45.8-18.7,60.4-38.8c2.2-3,2.5-7.1,0.8-10.4s-5.1-5.5-8.9-5.5H578l-6.2-28.7c-0.8-3.9-3.9-6.9-7.7-7.7
	c-3.9-0.8-7.8,0.7-10.2,3.9c-14,19.4-30.9,35.9-50.3,49.3v-30.2c0-75.5-61.5-137-137-137s-137,61.5-137,137v44.1l-113.8,61.4
	c-4,2.2-6.1,6.8-4.9,11.2c0.2,0.8,0.5,1.6,0.9,2.4c17.8,32.3,46.8,56.9,81.5,69.4c16.6,6,33.9,8.9,51.2,8.9
	c18.9,0,37.9-3.6,55.8-10.6l18.9-7.5c17.1-6.8,36.3-13.2,49.6-17.5 M556.6,272.9L556.6,272.9l3.5,16c1,4.6,5.1,7.9,9.8,7.9h19.2
	c-20.6,15.9-48.3,20.8-73.2,12.6C530.9,298.9,544.5,286.7,556.6,272.9z M366.5,146.4c62.2,0,113.1,48.7,116.8,110H249.7
	C253.4,195.1,304.3,146.4,366.5,146.4z M311.8,424.1l-18.9,7.5c-55.8,22.1-119.1,3.2-154.1-43.9h15.6c62.3,0,123.6,9.1,182.8,27
	C328.9,417.6,320.1,420.8,311.8,424.1z"/>
<path id="SVGID_x5F_1_x5F_" class="st1" d="M382.6,424.1c0,0,153.1,64.9,208.6-18.3"/>
<text><textPath  xlink:href="#SVGID_x5F_1_x5F_" startOffset="30.6311%">
<tspan  class="st0" style="font-family:'BerlinSansFBDemi-Bold'; font-size:46px;">Hats.ge</tspan></textPath>
</text>
<text transform="matrix(1 0 0 1 596.9377 407.6753)" class="st2 st3"> </text>
<text class="st2 st3"> </text>
</svg>
