<svg xmlns="http://www.w3.org/2000/svg" viewBox="0 0 512.08 335.25"><defs><style>.cls-1,.cls-2{fill:#a98168;}.cls-2{font-size:44px;font-family:ProductSans-Black, Product Sans Black;font-weight:800;}</style></defs><title>logo</title><g id="Layer_2" data-name="Layer 2"><g id="Layer_1-2" data-name="Layer 1"><path class="cls-1" d="M288.54,289.2l.4-.1-5.4-2.1a649.72,649.72,0,0,0-234.1-45.7l82-44.3h79.5a10,10,0,0,0,0-20h-72V149.9h234V177h-72a10,10,0,0,0,0,20h79.5L488,255.1a126.34,126.34,0,0,1-10.8,14.2c5.6,2.7,12,5.7,18.8,8.8a151.11,151.11,0,0,0,14.8-22,9.82,9.82,0,0,0,.8-7.7h0a10.29,10.29,0,0,0-4.8-6l-66.6-35.9c3.2-.3,6.4-.8,9.5-1.4a98.38,98.38,0,0,0,60.4-38.8,10,10,0,0,0-8.1-15.9h-34.6l-6.2-28.7a10,10,0,0,0-7.7-7.7,10.11,10.11,0,0,0-10.2,3.9A206.54,206.54,0,0,1,393,167.2V137C393,61.5,331.54,0,256,0S119,61.5,119,137v44.1L5.24,242.5a9.88,9.88,0,0,0-4.9,11.2,11.72,11.72,0,0,0,.9,2.4,151.55,151.55,0,0,0,132.7,78.3,153.56,153.56,0,0,0,55.8-10.6l18.9-7.5c17.1-6.8,36.3-13.2,49.6-17.5M446,146.5h0l3.5,16a10.05,10.05,0,0,0,9.8,7.9h19.2a79.71,79.71,0,0,1-73.2,12.6A227.61,227.61,0,0,0,446,146.5ZM255.94,20c62.2,0,113.1,48.7,116.8,110H139.14C142.84,68.7,193.74,20,255.94,20Zm-54.7,277.7-18.9,7.5c-55.8,22.1-119.1,3.2-154.1-43.9h15.6a630.11,630.11,0,0,1,182.8,27C218.34,291.2,209.54,294.4,201.24,297.7Z"/><text class="cls-2" transform="translate(304.75 309.3) rotate(13.74)">H</text><text class="cls-2" transform="translate(337 317) rotate(8.67)">a</text><text class="cls-2" transform="translate(362.05 320.69) rotate(3.79)">t</text><text class="cls-2" transform="matrix(1, -0.04, 0.04, 1, 383.29, 322.1)">s</text><text class="cls-2" transform="matrix(0.99, -0.16, 0.16, 0.99, 407.48, 320.67)">.</text><text class="cls-2" transform="translate(423.79 318.38) rotate(-20.29)">g</text><text class="cls-2" transform="matrix(0.77, -0.64, 0.64, 0.77, 454.77, 305.74)">e</text></g></g></svg>